<svg viewBox="0 0 332 78" fill="none" xmlns="http://www.w3.org/2000/svg">
  <path fill="rgba(11, 122, 131, 0.75)"
    d="M58.4114 22L1 40V65.9999C0.999997 69.9999 4.00043 72.9999 4.00043 72.9999C4.00043 72.9999 7.00043 75.9999 11.0307 75.9999H321.031C325.031 75.9999 328.031 72.9999 328.031 72.9999C328.031 72.9999 331.031 69.9999 331.031 65.9999V45L279.14 22L223.958 46L168.776 25L113.594 49L58.4114 22Z">
  </path>
  <path stroke="#0B7A83" stroke-width="0.15rem"
    d="M321.031 75.9999C325.031 75.9999 328.031 72.9999 328.031 72.9999C328.031 72.9999 331.031 69.9999 331.031 65.9999C331.031 61.9999 331.031 45 331.031 45L279.14 22L223.958 46L168.776 25L113.594 49L58.4114 22L1 40C1 40 1.00001 47.9721 1 65.9999C0.999997 69.9999 4.00043 72.9999 4.00043 72.9999C4.00043 72.9999 7.00043 75.9999 11.0307 75.9999M321.031 75.9999C321.031 75.9999 103.378 75.9999 11.0307 75.9999M321.031 75.9999H11.0307">
  </path>
</svg>